<svg width="23" height="23" viewBox="0 0 23 23" fill="none" xmlns="http://www.w3.org/2000/svg">
<path d="M22.3719 7.00746V0.93721C18.4751 0.93721 14.6757 2.24838 11.948 4.53079L11.2173 5.11354L10.4867 4.53079C7.71025 2.24838 3.9596 0.93721 0.0628204 0.93721V7.00746C0.0628204 8.65857 0.647343 10.2125 1.62154 11.5237C0.647343 12.8349 0.0628204 14.3889 0.0628204 16.04V22.1102C3.9596 22.1102 7.75896 20.7991 10.4867 18.5167L11.2173 17.9339C9.31767 16.817 8.14864 14.8259 8.14864 12.5921V10.4554C8.14864 8.27007 9.31767 6.23047 11.2173 5.11354C13.117 6.23047 14.2861 8.27007 14.2861 10.4554V12.5921C14.2861 14.7774 13.117 16.817 11.2173 17.9339L11.948 18.5167C14.7244 20.7991 18.4751 22.1102 22.3719 22.1102V16.04C22.3719 14.3889 21.7874 12.8349 20.8132 11.5237C21.7874 10.2125 22.3719 8.65857 22.3719 7.00746Z" fill="#7845D5"/>
</svg>
