<svg width="43" height="42" viewBox="0 0 43 42" fill="none" xmlns="http://www.w3.org/2000/svg">
<path d="M36.0347 35.4532H29.9104V25.862C29.9104 23.5748 29.8696 20.6306 26.7251 20.6306C23.5354 20.6306 23.0473 23.1225 23.0473 25.6955V35.4526H16.923V15.7291H22.8023V18.4245H22.8846C23.473 17.4184 24.3232 16.5908 25.3448 16.0298C26.3663 15.4687 27.5209 15.1952 28.6855 15.2385C34.8928 15.2385 36.0373 19.3215 36.0373 24.6332L36.0347 35.4532ZM10.0127 13.033C9.30978 13.0331 8.62259 12.8248 8.03806 12.4344C7.45354 12.0439 6.99794 11.4889 6.72883 10.8396C6.45972 10.1902 6.38919 9.47556 6.5262 8.7861C6.66321 8.09664 7.0016 7.46329 7.49855 6.96615C7.9955 6.469 8.6287 6.13039 9.31809 5.99313C10.0075 5.85587 10.7221 5.92612 11.3715 6.19501C12.021 6.4639 12.5761 6.91934 12.9668 7.50375C13.3574 8.08815 13.566 8.77527 13.5661 9.47822C13.5662 9.94495 13.4743 10.4071 13.2958 10.8384C13.1173 11.2696 12.8556 11.6615 12.5256 11.9916C12.1956 12.3217 11.8039 12.5835 11.3727 12.7622C10.9415 12.9409 10.4794 13.0329 10.0127 13.033ZM13.0749 35.4532H6.94415V15.7291H13.0749V35.4532ZM39.0879 0.237191H3.8667C3.06727 0.228169 2.29693 0.536907 1.72502 1.09556C1.15311 1.65422 0.826407 2.41708 0.81665 3.21652V38.5851C0.826073 39.3849 1.15258 40.1483 1.72448 40.7075C2.29637 41.2667 3.06688 41.5761 3.8667 41.5676H39.0879C39.8893 41.5776 40.662 41.2692 41.2361 40.7099C41.8103 40.1507 42.139 39.3865 42.1501 38.5851V3.21397C42.1387 2.41294 41.8097 1.64921 41.2356 1.09057C40.6614 0.531929 39.8889 0.224074 39.0879 0.234638" fill="#0A66C2"/>
</svg>
