<svg width="38" height="34" viewBox="0 0 38 34" fill="none" xmlns="http://www.w3.org/2000/svg">
<path d="M32.1017 28.9997H26.5898V21.154C26.5898 19.2831 26.5531 16.8747 23.7231 16.8747C20.8523 16.8747 20.4131 18.9131 20.4131 21.0178V28.9992H14.9012V12.8651H20.1926V15.07H20.2667C20.7962 14.2471 21.5614 13.5701 22.4808 13.1111C23.4002 12.6522 24.4393 12.4285 25.4875 12.4638C31.074 12.4638 32.104 15.8038 32.104 20.1489L32.1017 28.9997ZM8.68193 10.6597C8.0493 10.6598 7.43083 10.4894 6.90476 10.17C6.37868 9.85067 5.96865 9.39667 5.72645 8.86547C5.48425 8.33426 5.42077 7.7497 5.54408 7.18572C5.66739 6.62173 5.97194 6.10365 6.41919 5.69698C6.86645 5.29031 7.43633 5.01332 8.05678 4.90103C8.67723 4.78875 9.32037 4.84622 9.90488 5.06618C10.4894 5.28613 10.989 5.65869 11.3406 6.13674C11.6922 6.61479 11.8799 7.17686 11.88 7.75188C11.8801 8.13367 11.7974 8.51174 11.6367 8.8645C11.476 9.21726 11.2405 9.5378 10.9435 9.80782C10.6466 10.0778 10.294 10.292 9.90593 10.4382C9.51789 10.5844 9.10198 10.6597 8.68193 10.6597ZM11.4379 28.9997H5.92024V12.8651H11.4379V28.9997ZM34.8496 0.192611H3.15053C2.43105 0.185231 1.73774 0.437782 1.22302 0.894768C0.708299 1.35175 0.414268 1.97578 0.405487 2.62974V31.5616C0.413967 32.2159 0.707826 32.8403 1.22253 33.2978C1.73723 33.7553 2.43069 34.0083 3.15053 34.0013H34.8496C35.5709 34.0096 36.2663 33.7572 36.783 33.2998C37.2998 32.8423 37.5956 32.2172 37.6056 31.5616V2.62765C37.5953 1.9724 37.2993 1.34766 36.7825 0.890685C36.2658 0.433711 35.5705 0.181881 34.8496 0.190523" fill="#0A66C2"/>
</svg>
