<svg width="40" height="36" viewBox="0 0 40 36" fill="none" xmlns="http://www.w3.org/2000/svg">
<path d="M33.5665 30.4764H27.7484V22.1947C27.7484 20.2199 27.7096 17.6777 24.7224 17.6777C21.6921 17.6777 21.2285 19.8293 21.2285 22.051V30.4758H15.4104V13.4454H20.9958V15.7728H21.074C21.6329 14.9041 22.4406 14.1895 23.4111 13.705C24.3815 13.2206 25.4784 12.9845 26.5848 13.0218C32.4817 13.0218 33.569 16.5473 33.569 21.1338L33.5665 30.4764ZM8.84562 11.1175C8.17785 11.1176 7.52502 10.9377 6.96972 10.6006C6.41442 10.2635 5.9816 9.78423 5.72595 9.22352C5.47029 8.6628 5.40329 8.04577 5.53345 7.45045C5.66361 6.85513 5.98507 6.30826 6.45718 5.879C6.92928 5.44974 7.53083 5.15736 8.18574 5.03884C8.84066 4.92032 9.51953 4.98098 10.1365 5.21316C10.7535 5.44533 11.2809 5.83858 11.652 6.34319C12.0231 6.8478 12.2212 7.4411 12.2213 8.04806C12.2214 8.45107 12.1342 8.85014 11.9646 9.2225C11.7949 9.59486 11.5463 9.93321 11.2329 10.2182C10.9194 10.5032 10.5472 10.7294 10.1376 10.8836C9.72802 11.0379 9.289 11.1174 8.84562 11.1175ZM11.7547 30.4764H5.9305V13.4454H11.7547V30.4764ZM36.4671 0.0688378H3.00692C2.24747 0.0610479 1.51565 0.32763 0.972328 0.810003C0.42901 1.29238 0.118644 1.95108 0.109375 2.64136V33.1806C0.118326 33.8712 0.428511 34.5303 0.97181 35.0132C1.51511 35.4961 2.24709 35.7632 3.00692 35.7558H36.4671C37.2284 35.7645 37.9625 35.4982 38.5079 35.0153C39.0533 34.5324 39.3656 33.8725 39.3761 33.1806V2.63916C39.3653 1.9475 39.0528 1.28806 38.5073 0.805693C37.9619 0.323332 37.2281 0.0575115 36.4671 0.0666335" fill="#0A66C2"/>
</svg>
