<svg width="17" height="20" viewBox="0 0 17 20" fill="none" xmlns="http://www.w3.org/2000/svg">
<g clip-path="url(#clip0_1_195)">
<path fill-rule="evenodd" clip-rule="evenodd" d="M2.96289 10C2.96289 9.8409 3.0261 9.68829 3.13863 9.57577C3.25115 9.46324 3.40376 9.40003 3.56289 9.40003H12.0733L8.74689 6.23203C8.68741 6.17808 8.63937 6.11274 8.60561 6.03989C8.57185 5.96703 8.55306 5.88814 8.55035 5.80788C8.54764 5.72763 8.56106 5.64765 8.58983 5.57268C8.61859 5.49771 8.66211 5.42928 8.71781 5.37144C8.77351 5.3136 8.84025 5.26752 8.91408 5.23595C8.98792 5.20438 9.06733 5.18794 9.14763 5.18763C9.22793 5.18731 9.30747 5.20311 9.38155 5.2341C9.45563 5.26509 9.52274 5.31063 9.57889 5.36803L13.9789 9.56803C14.037 9.624 14.0831 9.6911 14.1147 9.76533C14.1462 9.83955 14.1625 9.91938 14.1625 10C14.1625 10.0807 14.1462 10.1605 14.1147 10.2347C14.0831 10.309 14.037 10.3761 13.9789 10.432L9.57889 14.632C9.52274 14.6894 9.45563 14.735 9.38155 14.766C9.30747 14.7969 9.22793 14.8128 9.14763 14.8124C9.06733 14.8121 8.98792 14.7957 8.91408 14.7641C8.84025 14.7325 8.77351 14.6865 8.71781 14.6286C8.66211 14.5708 8.61859 14.5024 8.58983 14.4274C8.56106 14.3524 8.54764 14.2724 8.55035 14.1922C8.55306 14.1119 8.57185 14.033 8.60561 13.9602C8.63937 13.8873 8.68741 13.822 8.74689 13.768L12.0733 10.6H3.56289C3.40376 10.6 3.25115 10.5368 3.13863 10.4243C3.0261 10.3118 2.96289 10.1592 2.96289 10Z" fill="white"/>
</g>
<defs>
<clipPath id="clip0_1_195">
<rect width="16" height="20" fill="white" transform="translate(0.5625)"/>
</clipPath>
</defs>
</svg>
