<svg width="59" height="60" viewBox="0 0 59 60" fill="none" xmlns="http://www.w3.org/2000/svg">
<path d="M48.4134 0.815674H10.8298C5.08916 0.815674 0.435486 5.46935 0.435486 11.2099V48.7936C0.435486 54.5342 5.08916 59.1879 10.8298 59.1879H48.4134C54.154 59.1879 58.8077 54.5342 58.8077 48.7936V11.2099C58.8077 5.46935 54.154 0.815674 48.4134 0.815674Z" fill="#316BFF"/>
<path d="M43.1725 39.873V42.0205C43.1725 42.8663 42.4861 43.5527 41.6403 43.5527H22.0726C18.8514 43.3468 16.2773 40.7727 16.0714 37.5515V17.9837C16.0714 17.138 16.7578 16.4516 17.6036 16.4516H19.751C20.5968 16.4516 21.2832 17.138 21.2832 17.9837V34.3572C21.2832 36.5586 23.0655 38.3408 25.2669 38.3408H41.6403C42.4861 38.3408 43.1725 39.0272 43.1725 39.873Z" fill="white"/>
<path d="M41.6397 16.4512H28.0266C27.1804 16.4512 26.4944 17.1372 26.4944 17.9834V20.1309C26.4944 20.9771 27.1804 21.6631 28.0266 21.6631H41.6397C42.4859 21.6631 43.1718 20.9771 43.1718 20.1309V17.9834C43.1718 17.1372 42.4859 16.4512 41.6397 16.4512Z" fill="white"/>
<path d="M39.2078 27.3969H28.0266C27.1804 27.3969 26.4944 28.0828 26.4944 28.929V31.0765C26.4944 31.9227 27.1804 32.6087 28.0266 32.6087H39.2078C40.054 32.6087 40.74 31.9227 40.74 31.0765V28.929C40.74 28.0828 40.054 27.3969 39.2078 27.3969Z" fill="white"/>
</svg>
