<svg width="22" height="22" viewBox="0 0 22 22" fill="none" xmlns="http://www.w3.org/2000/svg">
<path d="M7.74405 1.55447C9.2385 3.72197 10.5433 5.98037 11.6579 8.30691M11.6579 8.30691C13.9856 7.29225 16.1661 5.8333 18.071 3.92891M11.6579 8.30691C12.2393 9.5203 12.7689 10.7523 13.2466 11.9995M15.5454 19.9044C15.2102 18.2534 14.7909 16.6164 14.2874 15M20.9755 11.8911C18.3466 11.3161 15.712 11.3846 13.2466 11.9995M13.2466 11.9995C9.5714 12.9162 6.27243 15.0473 3.92951 18.0711M3.92951 18.0711C7.83483 21.9763 14.1656 21.9763 18.071 18.071C21.9763 14.1658 21.9763 7.83414 18.071 3.92891M3.92951 18.0711C0.0241625 14.1659 0.0231626 7.83417 3.92851 3.92895C7.83386 0.02371 14.1657 0.02367 18.071 3.92891M1.06166 9.9289C3.37618 10.1743 5.72353 10.0358 8 9.5125" stroke="white" stroke-width="1.5" stroke-linecap="round" stroke-linejoin="round"/>
</svg>
