<svg width="24" height="20" viewBox="0 0 24 20" fill="none" xmlns="http://www.w3.org/2000/svg">
<path d="M12.1549 6.59518C12.0664 6.24819 12.0221 5.9012 12.0221 5.55422C12.0221 3.03855 14.1026 1 16.67 1C17.998 1 19.1932 1.52048 20.0785 2.43133C21.0966 2.21446 22.1147 1.8241 23 1.30361C23 4.17647 21.3577 5.23529 21.3577 5.23529C21.3577 5.23529 21.3577 5.57093 21.3577 6.0747C21.3577 12.1036 16.67 19 8.12676 19C5.47082 19 3.03622 18.2627 1 16.9614C3.44338 17.2607 5.91219 16.5817 7.86117 15.0964C5.82495 15.053 4.09859 13.7518 3.52314 11.9301C4.2429 12.0309 4.89236 12.0176 5.60362 11.8434C3.43329 11.4003 1.88531 9.4941 1.88531 7.33253C2.50503 7.67952 3.25755 7.85301 4.01006 7.89639C2.00439 6.60881 1.30896 3.84966 2.5493 1.8241C4.2001 3.7838 6.44286 5.27502 9 6.04177" stroke="white" stroke-width="1.5" stroke-linecap="round" stroke-linejoin="round"/>
</svg>
