<svg width="63" height="63" viewBox="0 0 63 63" fill="none" xmlns="http://www.w3.org/2000/svg">
<path d="M51.4543 0.498535H11.7827C5.72319 0.498535 0.810978 5.41075 0.810978 11.4703V51.1419C0.810978 57.2014 5.72319 62.1136 11.7827 62.1136H51.4543C57.5139 62.1136 62.4261 57.2014 62.4261 51.1419V11.4703C62.4261 5.41075 57.5139 0.498535 51.4543 0.498535Z" fill="#316BFF"/>
<path d="M45.9223 41.7257V43.9925C45.9223 44.8853 45.1977 45.6098 44.305 45.6098H23.6502C20.25 45.3925 17.5329 42.6754 17.3155 39.2752V18.6204C17.3155 17.7276 18.0401 17.0031 18.9328 17.0031H21.1996C22.0924 17.0031 22.8169 17.7276 22.8169 18.6204V35.9035C22.8169 38.2272 24.6982 40.1084 27.0219 40.1084H44.305C45.1977 40.1084 45.9223 40.833 45.9223 41.7257Z" fill="white"/>
<path d="M44.3043 17.0027H29.9349C29.0417 17.0027 28.3176 17.7268 28.3176 18.62V20.8868C28.3176 21.78 29.0417 22.5041 29.9349 22.5041H44.3043C45.1975 22.5041 45.9216 21.78 45.9216 20.8868V18.62C45.9216 17.7268 45.1975 17.0027 44.3043 17.0027Z" fill="white"/>
<path d="M41.7373 28.5564H29.9349C29.0417 28.5564 28.3176 29.2805 28.3176 30.1737V32.4405C28.3176 33.3338 29.0417 34.0578 29.9349 34.0578H41.7373C42.6305 34.0578 43.3546 33.3338 43.3546 32.4405V30.1737C43.3546 29.2805 42.6305 28.5564 41.7373 28.5564Z" fill="white"/>
</svg>
