<svg width="22" height="20" viewBox="0 0 22 20" fill="none" xmlns="http://www.w3.org/2000/svg">
<path d="M21 7.5V7C21 6.07099 21 5.60649 20.9384 5.21783C20.5996 3.07837 18.9216 1.40042 16.7822 1.06156C16.3935 1 15.929 1 15 1H9C6.19974 1 4.79961 1 3.73005 1.54497C2.78924 2.02433 2.02433 2.78924 1.54497 3.73005C1 4.79961 1 6.19974 1 9V11C1 13.8003 1 15.2004 1.54497 16.27C2.02433 17.2108 2.78924 17.9757 3.73005 18.455C4.79961 19 6.19974 19 9 19H15C15.929 19 16.3935 19 16.7822 18.9384C18.9216 18.5996 20.5996 16.9216 20.9384 14.7822C21 14.3935 21 13.929 21 13V12.5M17 6L16 6.66667L15.4376 7.0416C13.8338 8.1108 13.0319 8.6454 12.1652 8.8531C11.3992 9.0366 10.6008 9.0366 9.8348 8.8531C8.96808 8.6454 8.16618 8.1108 6.5624 7.0416L6 6.66667L5 6" stroke="white" stroke-width="1.5" stroke-linecap="round"/>
</svg>
