<svg width="66" height="66" viewBox="0 0 66 66" fill="none" xmlns="http://www.w3.org/2000/svg">
<path d="M53.4941 0.186035H11.7345C5.35603 0.186035 0.18528 5.35678 0.18528 11.7352V53.4948C0.18528 59.8733 5.35603 65.044 11.7345 65.044H53.4941C59.8725 65.044 65.0433 59.8733 65.0433 53.4948V11.7352C65.0433 5.35678 59.8725 0.186035 53.4941 0.186035Z" fill="#316BFF"/>
<path d="M47.6708 43.5831V45.9692C47.6708 46.9089 46.9082 47.6716 45.9684 47.6716H24.2265C20.6474 47.4428 17.7873 44.5827 17.5585 41.0036V19.2617C17.5585 18.3219 18.3212 17.5592 19.2609 17.5592H21.647C22.5868 17.5592 23.3494 18.3219 23.3494 19.2617V37.4544C23.3494 39.9004 25.3297 41.8807 27.7757 41.8807H45.9684C46.9082 41.8807 47.6708 42.6433 47.6708 43.5831Z" fill="white"/>
<path d="M45.9677 17.5589H30.8421C29.9018 17.5589 29.1396 18.3211 29.1396 19.2613V21.6474C29.1396 22.5876 29.9018 23.3498 30.8421 23.3498H45.9677C46.9079 23.3498 47.6701 22.5876 47.6701 21.6474V19.2613C47.6701 18.3211 46.9079 17.5589 45.9677 17.5589Z" fill="white"/>
<path d="M43.2656 29.7207H30.8421C29.9018 29.7207 29.1396 30.4829 29.1396 31.4231V33.8092C29.1396 34.7494 29.9018 35.5116 30.8421 35.5116H43.2656C44.2058 35.5116 44.968 34.7494 44.968 33.8092V31.4231C44.968 30.4829 44.2058 29.7207 43.2656 29.7207Z" fill="white"/>
</svg>
